<?xml version="1.0" encoding="UTF-8"?>
<svg width="33px" height="30px" viewBox="0 0 33 30" version="1.1" xmlns="http://www.w3.org/2000/svg" xmlns:xlink="http://www.w3.org/1999/xlink">
    <!-- Generator: Sketch 49.3 (51167) - http://www.bohemiancoding.com/sketch -->
    <title>Group</title>
    <desc>Created with Sketch.</desc>
    <defs></defs>
    <g id="Symbols" stroke="none" stroke-width="1" fill="none" fill-rule="evenodd">
        <g id="HEADER/Header-user-bueno" transform="translate(-973.000000, -15.000000)" fill="#9B9B9B" fill-rule="nonzero">
            <g id="Group" transform="translate(973.000000, 15.000000)">
                <path d="M32.6497368,11.8600873 L17.0377135,0.220545852 C16.7366608,-0.00386462882 16.3276667,-0.00386462882 16.0267427,0.220545852 L0.414590643,11.8600873 C0.0332573099,12.1444323 -0.0495964912,12.6896725 0.229649123,13.0779694 C0.508894737,13.4662664 1.04442105,13.5505022 1.42569006,13.2662882 L16.5321637,2.00358079 L31.6386374,13.2662227 C31.7909649,13.379869 31.9679942,13.4345633 32.1434795,13.4345633 C32.4069649,13.4345633 32.6669766,13.3110917 32.834614,13.0779039 C33.113924,12.6896725 33.0310702,12.1444323 32.6497368,11.8600873 Z" id="Shape"></path>
                <path d="M28.5129006,13.4635153 C28.0403509,13.4635153 27.657152,13.8536463 27.657152,14.3348908 L27.657152,28.2049127 L20.8112924,28.2049127 L20.8112924,20.6337773 C20.8112924,18.2311572 18.8916316,16.2765721 16.5322281,16.2765721 C14.1728246,16.2765721 12.2531637,18.2312882 12.2531637,20.6337773 L12.2531637,28.2049782 L5.40723977,28.2049782 L5.40723977,14.3349563 C5.40723977,13.8537118 5.02404094,13.4635808 4.55149123,13.4635808 C4.07894152,13.4635808 3.69574269,13.8537118 3.69574269,14.3349563 L3.69574269,29.0764192 C3.69574269,29.5576638 4.07894152,29.9477948 4.55149123,29.9477948 L13.1089123,29.9477948 C13.5589474,29.9477948 13.9272222,29.5937555 13.9613158,29.1442795 C13.9633743,29.1239083 13.9646608,29.1016376 13.9646608,29.0764192 L13.9646608,20.6338428 C13.9646608,19.1922052 15.1164444,18.0193886 16.5322281,18.0193886 C17.9480117,18.0193886 19.0997953,19.1922707 19.0997953,20.6338428 L19.0997953,29.0764192 C19.0997953,29.1015066 19.1010819,29.1233843 19.1031404,29.1434934 C19.136848,29.5932969 19.5052515,29.9477948 19.9555439,29.9477948 L28.5129649,29.9477948 C28.9855789,29.9477948 29.3687135,29.5576638 29.3687135,29.0764192 L29.3687135,14.3349563 C29.3686491,13.8536463 28.9855146,13.4635153 28.5129006,13.4635153 Z" id="Shape"></path>
            </g>
        </g>
    </g>
</svg>