<?xml version="1.0" encoding="UTF-8"?>
<svg width="43px" height="43px" viewBox="0 0 43 43" version="1.1" xmlns="http://www.w3.org/2000/svg" xmlns:xlink="http://www.w3.org/1999/xlink">
    <!-- Generator: Sketch 49.3 (51167) - http://www.bohemiancoding.com/sketch -->
    <title>Group</title>
    <desc>Created with Sketch.</desc>
    <defs>
        <circle id="path-1" cx="21.5" cy="21.5" r="21.5"></circle>
    </defs>
    <g id="Symbols" stroke="none" stroke-width="1" fill="none" fill-rule="evenodd">
        <g id="HEADER/Header-user-bueno" transform="translate(-879.000000, -10.000000)">
            <g id="Group" transform="translate(879.000000, 10.000000)">
                <g id="sesion-estudio-barcelona-10-big">
                    <mask id="mask-2" fill="white">
                        <use xlink:href="#path-1"></use>
                    </mask>
                    <use id="Mask" fill="#FFFFFF" xlink:href="#path-1"></use>
                </g>
                <path d="M21.5,0 C9.64695652,0 0,9.76007964 0,21.7521155 C0,28.2020906 2.80434783,34.0089597 7.25391304,38 C8.45043478,37.508213 9.72173913,36.9975112 10.9182609,36.4868094 C12.8626087,35.6356396 13.2926087,35.1249378 15.2556522,34.2548532 C15.2556522,34.2548532 15.4613043,33.2523644 15.3865217,32.6470881 L16.9195652,32.6470881 L16.9382609,32.6470881 C17.0130435,32.6470881 17.2186957,32.495769 16.9195652,30.4907914 C16.9195652,30.4907914 15.05,29.9800896 14.9565217,26.2160279 C14.9565217,26.2160279 14.8443478,26.2538576 14.6573913,26.2538576 C14.246087,26.2538576 13.5169565,26.0079642 13.4608696,24.4001991 C13.4047826,22.8491787 12.2082609,21.506222 13.9282609,20.3902439 L13.0495652,18.0258835 C13.0495652,18.0258835 11.5352174,9.72224988 15.4052174,9.72224988 C15.6856522,9.72224988 16.0034783,9.76007964 16.3586957,9.85465406 C15.3117391,8.60627178 18.1908696,7.3578895 21.5,7.3578895 C24.9586957,7.3578895 28.9034783,8.71976108 29.3708696,12.8432056 C29.3708696,12.8432056 30.0252174,17.1936287 29.3708696,20.1821802 L29.4456522,20.1821802 C29.7821739,20.1821802 31.2965217,20.371329 30.0626087,23.927327 C30.0626087,23.927327 29.4456522,26.2538576 28.4734783,26.2538576 C28.3613043,26.2538576 28.2491304,26.2160279 28.1369565,26.1592832 C28.1369565,26.1592832 28.323913,29.7909408 26.4730435,30.396217 L26.603913,32.4579393 L28.3613043,32.7227476 C28.3613043,32.7227476 28.0995652,34.3115978 28.3986957,34.4818318 C28.3986957,34.4818318 30.4926087,35.900448 32.9791304,36.543554 C34.0634783,36.8272773 35.1665217,37.1677451 36.2508696,37.5271279 C40.4013043,33.5550025 43,27.9561971 43,21.7521155 C43,9.76007964 33.3530435,0 21.5,0 Z" id="Shape" fill="#9B9B9B" fill-rule="nonzero"></path>
            </g>
        </g>
    </g>
</svg>